<svg width="30" height="30" viewBox="0 0 30 30" fill="none" xmlns="http://www.w3.org/2000/svg">
<g clip-path="url(#clip0)">
<path fill-rule="evenodd" clip-rule="evenodd" d="M12.8946 0.870615L10.6346 3.12861C10.4521 3.31118 10.2047 3.41401 9.94661 3.41461H6.39061C4.74661 3.41461 3.41461 4.74661 3.41461 6.39061V9.94661C3.41461 10.2066 3.31061 10.4526 3.12861 10.6366L0.868615 12.8946C0.310721 13.4527 -0.00268555 14.2095 -0.00268555 14.9986C-0.00268555 15.7877 0.310721 16.5445 0.868615 17.1026L3.12861 19.3626C3.31118 19.5451 3.41401 19.7925 3.41461 20.0506V23.6066C3.41461 25.2506 4.74661 26.5826 6.39061 26.5826H9.94661C10.2066 26.5826 10.4526 26.6866 10.6366 26.8686L12.8946 29.1286C13.4527 29.6865 14.2095 29.9999 14.9986 29.9999C15.7877 29.9999 16.5445 29.6865 17.1026 29.1286L19.3626 26.8686C19.5451 26.6861 19.7925 26.5832 20.0506 26.5826H23.6066C25.2506 26.5826 26.5826 25.2506 26.5826 23.6066V20.0506C26.5826 19.7906 26.6866 19.5446 26.8686 19.3606L29.1286 17.1026C29.6865 16.5445 29.9999 15.7877 29.9999 14.9986C29.9999 14.2095 29.6865 13.4527 29.1286 12.8946L26.8686 10.6346C26.6861 10.4521 26.5832 10.2047 26.5826 9.94661V6.39061C26.5826 4.74661 25.2506 3.41461 23.6066 3.41461H20.0506C19.7918 3.41454 19.5436 3.31167 19.3606 3.12861L17.1026 0.868615C16.5445 0.310721 15.7877 -0.00268555 14.9986 -0.00268555C14.2095 -0.00268555 13.4527 0.310721 12.8946 0.868615V0.870615ZM9.29061 19.2906L19.2906 9.29061L20.7066 10.7066L10.7066 20.7066L9.29061 19.2906ZM9.99861 9.99861V11.9986H11.9986V9.99861H9.99861ZM17.9986 19.9986H19.9986V17.9986H17.9986V19.9986Z" fill="#0FC82D"/>
</g>
<defs>
<clipPath id="clip0">
<rect width="30" height="30" fill="white"/>
</clipPath>
</defs>
</svg>
