<svg width="21" height="21" viewBox="0 0 21 21" fill="none" xmlns="http://www.w3.org/2000/svg">
<g clip-path="url(#clip0)">
<path d="M10.2898 20.2899C12.942 20.2899 15.4855 19.2363 17.3609 17.3609C19.2362 15.4856 20.2898 12.942 20.2898 10.2899C20.2898 7.63769 19.2362 5.09415 17.3609 3.21879C15.4855 1.34342 12.942 0.289856 10.2898 0.289856C7.63763 0.289856 5.09409 1.34342 3.21873 3.21879C1.34336 5.09415 0.289795 7.63769 0.289795 10.2899C0.289795 12.942 1.34336 15.4856 3.21873 17.3609C5.09409 19.2363 7.63763 20.2899 10.2898 20.2899V20.2899ZM5.91479 10.9149C5.74903 10.9149 5.59006 10.849 5.47285 10.7318C5.35564 10.6146 5.28979 10.4556 5.28979 10.2899C5.28979 10.1241 5.35564 9.96512 5.47285 9.84791C5.59006 9.7307 5.74903 9.66486 5.91479 9.66486H13.156L10.4723 6.98236C10.4142 6.92425 10.3681 6.85526 10.3366 6.77934C10.3052 6.70341 10.289 6.62204 10.289 6.53986C10.289 6.45768 10.3052 6.3763 10.3366 6.30038C10.3681 6.22445 10.4142 6.15547 10.4723 6.09736C10.5304 6.03925 10.5994 5.99315 10.6753 5.9617C10.7512 5.93025 10.8326 5.91407 10.9148 5.91407C10.997 5.91407 11.0784 5.93025 11.1543 5.9617C11.2302 5.99315 11.2992 6.03925 11.3573 6.09736L15.1073 9.84736C15.1655 9.90541 15.2117 9.97438 15.2432 10.0503C15.2747 10.1262 15.2909 10.2076 15.2909 10.2899C15.2909 10.3721 15.2747 10.4535 15.2432 10.5294C15.2117 10.6053 15.1655 10.6743 15.1073 10.7324L11.3573 14.4824C11.2399 14.5997 11.0808 14.6656 10.9148 14.6656C10.7488 14.6656 10.5897 14.5997 10.4723 14.4824C10.3549 14.365 10.289 14.2058 10.289 14.0399C10.289 13.8739 10.3549 13.7147 10.4723 13.5974L13.156 10.9149H5.91479Z" fill="white"/>
</g>
<defs>
<clipPath id="clip0">
<rect width="20" height="20" fill="white" transform="translate(20.2898 20.2899) rotate(-180)"/>
</clipPath>
</defs>
</svg>
