<svg width="30" height="30" viewBox="0 0 30 30" fill="none" xmlns="http://www.w3.org/2000/svg">
<path d="M23.3049 15.3857L25.3094 24.4286L17.728 19.6286L10.1466 24.4286L12.1374 15.3857L5.45601 9.28571L14.2782 8.51429L17.728 0L21.1778 8.51429L30 9.28571L23.3049 15.3857ZM1.36535 16.3286C1.62442 16.3286 1.8835 16.2429 2.1153 16.0857L6.47868 13.0714L4.3379 11.1286L0.615393 13.7C-0.0132062 14.1286 -0.187741 15 0.219962 15.7143C0.492673 16.1 0.92901 16.3286 1.36535 16.3286V16.3286ZM0.219962 29.3571C0.492673 29.7714 0.92901 30 1.36535 30C1.62442 30 1.8835 29.9286 2.1153 29.7714L7.71951 25.9L8.18312 23.9429L8.60582 21.8714L0.615393 27.3714C-0.0132062 27.8143 -0.187741 28.7 0.219962 29.3571V29.3571ZM0.615393 20.5429C0.314258 20.7501 0.103639 21.0737 0.0295466 21.4431C-0.0445458 21.8125 0.0239108 22.1976 0.219962 22.5143C0.492673 22.9429 0.92901 23.1571 1.36535 23.1571C1.62442 23.1571 1.8835 23.0857 2.1153 22.9286L9.50577 17.8571L9.87393 16.1571L8.61946 15L0.615393 20.5429V20.5429Z" fill="#0FC82D"/>
</svg>
